<svg width="345" height="184" viewBox="0 0 345 184" fill="none" xmlns="http://www.w3.org/2000/svg">
<path d="M254.392 18.074C273.827 18.074 289.532 24.2473 301.507 36.5941C313.482 48.7448 319.469 65.795 319.469 87.7448V183.285H278.244V93.3302C278.244 80.3955 275.005 70.4985 268.527 63.6393C262.049 56.584 253.215 53.0563 242.025 53.0563C230.639 53.0563 221.609 56.584 214.934 63.6393C208.456 70.4985 205.217 80.3955 205.217 93.3302V183.285H163.992V20.4257H205.217V52.9584C208.948 35.9579 217.683 28.1669 226.124 24.2473C234.762 20.1318 244.184 18.074 254.392 18.074Z" fill="#FDD06D"/>
<path d="M319.484 182.866C312.165 182.866 306.033 180.605 301.088 176.082C296.341 171.362 293.968 165.561 293.968 158.679C293.968 151.796 296.341 146.094 301.088 141.571C306.033 136.851 312.165 134.492 319.484 134.492C326.802 134.492 332.835 136.851 337.583 141.571C342.528 146.094 345 151.796 345 158.679C345 165.561 342.528 171.362 337.583 176.082C332.835 180.605 326.802 182.866 319.484 182.866Z" fill="white"/>
<path fill-rule="evenodd" clip-rule="evenodd" d="M0 26.5794C0 11.9 11.9 0 26.5794 0H163.729L163.711 20.4273H136.621L136.632 50.1167C131.528 40.9056 123.774 33.2624 113.369 27.187C102.965 21.1117 90.6953 18.074 76.5609 18.074C62.2303 18.074 49.1757 21.5036 37.3971 28.3629C25.8148 35.2222 16.6864 44.9232 10.0118 57.4659C3.33729 69.8126 1.62227e-05 84.2171 1.62227e-05 100.679C1.62227e-05 116.946 3.33729 131.448 10.0118 144.187C16.6864 156.926 25.8148 166.823 37.3971 173.878C44.4832 178.194 52.0837 181.19 60.1985 182.866H26.5794C11.9 182.866 0 170.966 0 156.287V26.5794ZM129.27 69.2247C134.178 78.2397 136.632 88.8226 136.632 100.973C136.632 113.124 134.178 123.805 129.27 133.016C124.362 142.031 117.688 148.988 109.247 153.888C101.002 158.591 91.8731 160.943 81.8613 160.943C71.8495 160.943 62.7211 158.591 54.4761 153.888C46.231 148.988 39.6546 142.031 34.7469 133.016C29.8391 123.805 27.3853 113.026 27.3853 100.679C27.3853 88.5287 29.8391 77.9458 34.7469 68.9307C39.6546 59.9156 46.231 53.0563 54.4761 48.3528C62.7211 43.6493 71.8495 41.2976 81.8613 41.2976C91.8731 41.2976 101.002 43.7473 109.247 48.6468C117.688 53.3503 124.362 60.2096 129.27 69.2247Z" fill="white"/>
<path d="M136.632 151.83C131.331 161.237 123.381 169.076 112.78 175.348C106.728 178.882 100.078 181.388 92.8309 182.866H136.661L136.632 151.83Z" fill="white"/>
</svg>
